<?xml version="1.0" encoding="utf-8"?>
<!-- Generator: Adobe Illustrator 24.1.2, SVG Export Plug-In . SVG Version: 6.00 Build 0)  -->
<svg version="1.1" id="Warstwa_3" xmlns="http://www.w3.org/2000/svg" xmlns:xlink="http://www.w3.org/1999/xlink" x="0px" y="0px"
	 viewBox="0 0 430 430" style="enable-background:new 0 0 430 430;" xml:space="preserve">
<style type="text/css">
	.st0{fill:#08a88a;}
	.st1{fill:#121331;}
	.st2{fill:none;stroke:#08a88a;stroke-width:12;stroke-linecap:round;stroke-linejoin:round;stroke-miterlimit:10;}
	.st3{fill:none;stroke:#121331;stroke-width:12;stroke-linecap:round;stroke-linejoin:round;stroke-miterlimit:10;}
	.st4{fill:#08a88a;}
	.st5{fill:#FFFFFF;stroke:#08a88a;stroke-width:12;stroke-linecap:round;stroke-linejoin:round;stroke-miterlimit:10;}
</style>
<g>
	<path class="st0" d="M269.67,96.92c-3.31,0-6-2.69-6-6V65.47c0-4.58-3.73-8.31-8.31-8.31h-80.72c-4.58,0-8.31,3.73-8.31,8.31v25.44
		c0,3.31-2.69,6-6,6s-6-2.69-6-6V65.47c0-11.2,9.11-20.31,20.31-20.31h80.72c11.2,0,20.31,9.11,20.31,20.31v25.44
		C275.67,94.23,272.99,96.92,269.67,96.92z"/>
	<path class="st1" d="M372.88,184.25v-58.33c0-22.61-18.39-41-41-41H98.11c-22.61,0-41,18.39-41,41v163.8c0,22.61,18.39,41,41,41
		h165.93c3.31,0,6-2.69,6-6c0-3.31-2.69-6-6-6H98.11c-15.99,0-29-13.01-29-29V190.3H175.9v29.38c0,3.31,2.69,6,6,6h66.19
		c3.31,0,6-2.69,6-6V190.3h106.79v99.41c0,12-7.59,22.92-18.89,27.17c-3.1,1.17-4.67,4.63-3.5,7.73c1.17,3.1,4.62,4.67,7.73,3.5
		c15.95-6,26.67-21.43,26.67-38.41V184.36c0-0.02,0-0.04,0-0.06S372.88,184.27,372.88,184.25z M242.1,213.69H187.9V190.3h54.19
		V213.69z M360.88,178.3H69.11v-52.39c0-15.99,13.01-29,29-29h233.77c15.99,0,29,13.01,29,29V178.3z"/>
	<g>
		<path class="st0" d="M305.33,384.8c-9.44,0-18.88-1.83-27.67-5.48c-0.01,0-0.1-0.04-0.1-0.04c-2.77-1.15-5.7-1.91-8.7-2.26
			l-11.81-1.36c-6.28-0.72-11.01-6.04-11.01-12.36v-11.91c0-22.95,18.67-41.62,41.62-41.62h35.62c22.95,0,41.62,18.67,41.62,41.62
			v11.92c0,6.32-4.73,11.63-11.01,12.35l-12.46,1.44c-2.85,0.33-5.63,1.06-8.28,2.16C324.3,382.96,314.81,384.8,305.33,384.8z
			 M287.65,321.77c-16.33,0-29.62,13.29-29.62,29.62v11.91c0,0.22,0.17,0.41,0.39,0.43l11.81,1.36c4.11,0.47,8.13,1.52,11.94,3.11
			c0.01,0,0.1,0.04,0.1,0.04c14.68,6.1,31.54,6.09,46.23-0.06c3.68-1.54,7.56-2.55,11.53-3.01l12.46-1.44
			c0.22-0.03,0.39-0.21,0.39-0.43v-11.92c0-16.33-13.29-29.62-29.62-29.62H287.65z"/>
		<path class="st0" d="M305.46,301.83c-17.1,0-30.97-13.39-31.56-30.48l-0.83-23.94c-0.3-8.64,2.84-16.82,8.85-23.04
			s14.07-9.64,22.72-9.64h1.67c8.64,0,16.71,3.42,22.72,9.64c6,6.22,9.15,14.4,8.85,23.04l-0.83,23.94
			C336.42,288.44,322.56,301.83,305.46,301.83z M304.63,226.73c-5.36,0-10.36,2.12-14.08,5.98c-3.72,3.85-5.67,8.93-5.49,14.28
			l0.83,23.94c0.37,10.6,8.96,18.9,19.57,18.9c10.6,0,19.2-8.3,19.57-18.9l0.83-23.94c0.19-5.36-1.76-10.43-5.49-14.28
			s-8.73-5.98-14.08-5.98H304.63z"/>
	</g>
</g>
</svg>
