<?xml version="1.0" encoding="utf-8"?>
<!-- Generator: Adobe Illustrator 25.0.1, SVG Export Plug-In . SVG Version: 6.00 Build 0)  -->
<svg version="1.1" id="Layer_1" xmlns="http://www.w3.org/2000/svg" xmlns:xlink="http://www.w3.org/1999/xlink" x="0px" y="0px"
	 viewBox="0 0 430 430" style="enable-background:new 0 0 430 430;" xml:space="preserve">
<style type="text/css">
	.st0{fill:#121331;}
	.st1{fill:none;stroke:#121331;stroke-width:12;stroke-linecap:round;stroke-linejoin:round;stroke-miterlimit:10;}
	.st2{fill:#08a88a;}
	.st3{fill:none;stroke:#08a88a;stroke-width:12;stroke-linecap:round;stroke-linejoin:round;stroke-miterlimit:10;}
</style>
<path class="st0" d="M215.18,238.33h-1.44c-35.83,0-64.98-29.15-64.98-64.98v-28.93c0-3.31,2.69-6,6-6s6,2.69,6,6v28.93
	c0,29.21,23.77,52.98,52.98,52.98h1.44c29.21,0,52.98-23.77,52.98-52.98v-32.36c0-3.31,2.69-6,6-6s6,2.69,6,6v32.36
	C280.16,209.18,251.01,238.33,215.18,238.33z"/>
<path class="st1" d="M182.12,223.14"/>
<path class="st1" d="M245.47,242.65"/>
<path class="st0" d="M238.88,385.81h-50.16c-9.26,0-15.18-3-21.45-6.18c-7.81-3.96-16.66-8.45-36.39-10.02H112.4
	c-11.45,0-20.76-9.31-20.76-20.76v-30.36c0-45.13,36.71-81.84,81.84-81.84h2.64v-13.5c0-3.31,2.69-6,6-6c3.31,0,6,2.68,6,6
	l0.01,19.27c0,0.08,0,0.15,0,0.23c0,0.05,0,0.1,0,0.15c0.33,13.21,11.18,23.85,24.47,23.85h2.4c13.28,0,24.13-10.63,24.47-23.83
	c0-0.06,0-0.11,0-0.17l0.01-18.69l0,0c0-3.31,2.69-6,6-6c3.23,0,5.87,2.55,6,5.75c0,0.02,0,0.04,0,0.07c0,0.01,0,0.01,0,0.02
	c0,0,0,0.01,0,0.01c0,0,0,0,0,0c0,0.02,0,0.04,0,0.07c0,0,0,0.01,0,0.01c0,0,0,0,0,0.01c0,0.02,0,0.04,0,0.07v12.69h5.04
	c45.13,0,81.84,36.71,81.84,81.84v30.36c0,11.45-9.31,20.76-20.76,20.76h-20.66c-19.61,1.56-28.45,6.04-36.25,10
	c-6.26,3.17-12.17,6.17-21.39,6.19C239.16,385.81,239.02,385.81,238.88,385.81z M238.76,373.81c-0.05,0-0.1,0.01-0.15,0.01
	C238.66,373.82,238.71,373.82,238.76,373.81z M173.48,248.65c-38.51,0-69.84,31.33-69.84,69.84v30.36c0,4.83,3.93,8.76,8.76,8.76
	h18.72c0.15,0,0.31,0.01,0.46,0.02c22.26,1.73,33.16,7.26,41.12,11.3c5.8,2.94,9.63,4.89,16.02,4.89h50.13
	c0.17-0.01,0.34-0.01,0.51-0.01c6.3-0.04,10.13-1.97,15.9-4.9c7.92-4.01,18.75-9.51,40.75-11.26c0.13-0.01,0.26-0.02,0.39-0.03
	c0.23-0.01,0.45-0.02,0.68-0.01h20.52c4.83,0,8.76-3.93,8.76-8.76v-30.36c0-38.51-31.33-69.84-69.84-69.84h-5.62
	c-3.07,17.04-18,30-35.9,30h-2.4c-17.9,0-32.84-12.96-35.9-30H173.48z"/>
<path class="st2" d="M151,151.24c-2.52,0-4.84-1.6-5.68-4.07c-0.27-0.79-6.63-19.69-9.08-41.21c-3.48-30.63,2.62-50.67,18.14-59.56
	c5.51-3.15,13.74-2.92,19.14,0.54c3.92,2.51,7.64,5.95,10.62,8.71c1.07,0.99,2.09,1.93,2.88,2.61c1.21,1.03,2.71,1.54,4.22,1.48
	c2.06-0.1,7.48-0.68,13.34-3.82c0.18-0.09,0.36-0.18,0.54-0.26c22.45-9.29,53.89-1.69,55.22-1.36c0.33,0.08,0.65,0.19,0.96,0.33
	c1.02,0.44,24.93,11.18,25.56,36.67c0.07,2.77,0.15,5.48,0.23,8.14c0.74,24.78,1.28,42.68-9.74,49.64
	c-1.91,1.21-4.33,1.24-6.27,0.08c-1.93-1.15-3.06-3.29-2.92-5.53c0.08-1.35,1.42-30.87-27.65-49.54
	c-6.81,13.96-28.23,44.58-88.31,57.02C151.81,151.2,151.4,151.24,151,151.24z M163.37,56.19c-1.15,0-2.28,0.21-3.02,0.63
	c-20.94,11.99-12.03,58.79-5.29,81.38c33.24-7.84,52.14-21.68,62.26-32.16c11.44-11.85,14.42-22.08,14.45-22.18
	c0.49-1.74,1.74-3.18,3.4-3.9c1.66-0.72,3.55-0.67,5.16,0.17c20.11,10.49,30.12,25.23,35.07,37.95c0.08-5.82-0.11-12.2-0.3-18.28
	c-0.08-2.67-0.16-5.41-0.23-8.2c-0.4-16.38-15.09-24.37-17.94-25.77c-4.01-0.9-29.6-6.21-46.97,0.82
	c-7.62,4.01-14.62,4.91-18.14,5.08c-4.58,0.23-9.05-1.31-12.59-4.33c-0.98-0.83-2.08-1.85-3.25-2.93c-2.64-2.44-5.92-5.48-8.94-7.41
	C166.17,56.48,164.74,56.19,163.37,56.19z"/>
<path class="st3" d="M154.76,144.43"/>
<path class="st3" d="M274.16,144.01"/>
<path class="st2" d="M266.12,346.33h-4.08c-11.91,0-21.6-9.69-21.6-21.6v-0.98c0-0.04,0-0.07,0-0.11c0-0.18,0-0.36,0-0.54v-0.53
	c0-0.08,0-0.16,0-0.24c0.04-4.47,0.28-8.67,0.69-11.93c0.43-3.38,1.31-10.42,7.53-10.42h0.23c0.06,0,0.13,0,0.19,0
	c1.7,0.05,3.26,0.6,6.01,2.97c5.87-3.59,12.09-3.59,17.96,0c2.75-2.37,4.3-2.92,6.01-2.97c0.06,0,0.13,0,0.19,0h0.23
	c6.21,0,7.1,7.04,7.53,10.42c0.41,3.25,0.65,7.44,0.69,11.9c0,0.09,0.01,0.18,0.01,0.27v2.16
	C287.72,336.64,278.03,346.33,266.12,346.33z M252.44,323.11v1.62c0,5.29,4.31,9.6,9.6,9.6h4.08c5.29,0,9.6-4.31,9.6-9.6v-1.09
	c0-2.74-0.08-5.13-0.2-7.13c-0.63,0.23-1.29,0.35-1.97,0.36c-1.6,0.05-3.14-0.59-4.28-1.71c-3.93-3.85-6.46-3.84-10.39,0
	c-1.14,1.12-2.68,1.75-4.28,1.71c-0.68-0.01-1.34-0.13-1.97-0.36C252.53,318.38,252.45,320.59,252.44,323.11z"/>
</svg>
