<?xml version="1.0" encoding="utf-8"?>
<!-- Generator: Adobe Illustrator 25.0.1, SVG Export Plug-In . SVG Version: 6.00 Build 0)  -->
<svg version="1.1" id="Layer_1" xmlns="http://www.w3.org/2000/svg" xmlns:xlink="http://www.w3.org/1999/xlink" x="0px" y="0px"
	 viewBox="0 0 430 430" style="enable-background:new 0 0 430 430;" xml:space="preserve">
<style type="text/css">
	.st0{fill:#08a88a;}
	.st1{fill:#121331;}
</style>
<path class="st0" d="M201.26,199.78c-35.66,0-64.68-29.02-64.68-64.68s29.02-64.68,64.68-64.68c35.67,0,64.68,29.02,64.68,64.68
	S236.92,199.78,201.26,199.78z M201.26,82.42c-29.05,0-52.68,23.63-52.68,52.68s23.63,52.68,52.68,52.68s52.68-23.63,52.68-52.68
	S230.31,82.42,201.26,82.42z"/>
<path class="st1" d="M232.54,325.06H74.98c-3.31,0-6-2.69-6-6v-11.88c0-48.37,39.35-87.72,87.72-87.72h90
	c7.11,0,14.19,0.86,21.04,2.55c1.11,0.24,2.16,0.79,3,1.63c2.34,2.34,2.34,6.14,0,8.48c-1.16,1.16-2.68,1.75-4.2,1.76
	c-0.5-0.01-1.01-0.05-1.5-0.18c-5.96-1.49-12.12-2.24-18.33-2.24h-90c-41.75,0-75.72,33.97-75.72,75.72v5.88h151.56
	c3.31,0,6,2.69,6,6S235.85,325.06,232.54,325.06z"/>
<path class="st0" d="M289.98,359.58c-39.17,0-71.04-31.87-71.04-71.04s31.87-71.04,71.04-71.04c39.17,0,71.04,31.87,71.04,71.04
	S329.15,359.58,289.98,359.58z M289.98,229.5c-32.55,0-59.04,26.49-59.04,59.04s26.49,59.04,59.04,59.04s59.04-26.49,59.04-59.04
	S322.54,229.5,289.98,229.5z"/>
<path class="st0" d="M290.62,327.38c-3.31,0-6-2.69-6-6V256.1c0-3.31,2.69-6,6-6s6,2.69,6,6v65.28
	C296.62,324.69,293.93,327.38,290.62,327.38z"/>
<path class="st0" d="M323.26,294.74h-65.28c-3.31,0-6-2.69-6-6s2.69-6,6-6h65.28c3.31,0,6,2.69,6,6S326.57,294.74,323.26,294.74z"/>
</svg>
